<?xml version="1.0" encoding="UTF-8" standalone="no"?>
<svg
   xmlns:dc="http://purl.org/dc/elements/1.1/"
   xmlns:cc="http://creativecommons.org/ns#"
   xmlns:rdf="http://www.w3.org/1999/02/22-rdf-syntax-ns#"
   xmlns:svg="http://www.w3.org/2000/svg"
   xmlns="http://www.w3.org/2000/svg"
   viewBox="0 0 782 1076"
   height="1076"
   width="782"
   id="svg885"
   version="1.1">
  <metadata
     id="metadata891">
    <rdf:RDF>
      <cc:Work
         rdf:about="">
        <dc:format>image/svg+xml</dc:format>
        <dc:type
           rdf:resource="http://purl.org/dc/dcmitype/StillImage" />
        <dc:title></dc:title>
      </cc:Work>
    </rdf:RDF>
  </metadata>
  <defs
     id="defs889" />
  <path
     id="path895"
     d="m 208.14654,914.12403 v -110 h 6.5 6.5 v -7.6413 c 0,-8.486 -0.18013,-8.7596 -10.95251,-16.63348 -8.11933,-5.93469 -8.50131,-7.27837 -8.87658,-31.22518 -0.22025,-14.05432 0.0579,-22.29639 0.84095,-24.91959 0.69181,-2.31755 3.36195,-6.21758 6.5328,-9.54188 l 5.36275,-5.62229 0.2963,-37.50404 c 0.26991,-34.16462 0.45695,-37.74907 2.10062,-40.25586 3.06693,-4.67743 7.42431,-6.64886 14.69567,-6.64886 7.27043,0 11.62782,1.97102 14.69567,6.64745 1.57135,2.39528 1.84564,5.56496 2.12425,24.54774 l 0.31992,21.79733 24.18008,0.002 c 27.29078,0.002 29.68778,0.5112 32.92853,6.99845 1.57719,3.15718 1.74859,7.42481 1.75,43.57069 l 0.002,40.07068 -2.75,5.4074 c -2.10112,4.13151 -4.28371,6.48959 -9.25,9.99381 l -6.5,4.58643 -0.29044,8.1855 -0.29044,8.1855 h 6.54044 6.54044 v 110 109.99997 h -6.5 -6.5 v -89.99997 -90 h -33.5 -33.5 v 90 89.99997 h -6.5 -6.5 V 914.12453 Z m 80,-90 v -7 h -33.5 -33.5 v 7 7 h 33.5 33.5 z m -12.99442,-27.75 c 0.003,-4.2625 0.47761,-9.4498 1.05455,-11.52729 1.32003,-4.7534 5.72713,-9.82192 11.46301,-13.18336 2.44204,-1.43113 4.89835,-3.45836 5.45847,-4.50494 0.63865,-1.19333 1.01839,-15.72421 1.01839,-38.96863 v -37.06574 h -3 -3 v 16.5 16.5 h -7 -7 v -16.5 -16.5 h -3 -3 v 16.5 16.5 h -7 -7 v -16.5 -16.5 h -3 -3 v 16.45078 c 0,22.38038 -0.70287,25.19805 -8.34356,33.44776 -3.36277,3.6308 -6.58011,6.72654 -7.14965,6.87941 -0.56954,0.15287 -2.94073,-1.66332 -5.26932,-4.03598 l -4.23379,-4.31392 5.49816,-5.42987 c 4.6173,-4.55995 5.49571,-5.99606 5.48285,-8.96402 -0.0192,-4.42422 -0.77896,-5.62524 -4.43892,-7.01676 -4.1038,-1.56026 -7.8915,0.24571 -12.11426,5.77609 l -3.43151,4.49411 v 18.4562 18.4562 l 3.2571,3.15 c 1.7914,1.7325 5.32365,4.55547 7.84944,6.27327 6.66774,4.53476 8.89346,9.71334 8.89346,20.69249 v 8.6842 h 20.5 20.5 l 0.006,-7.75 z M 234.14654,671.12407 v -34 h -3 -3 v 33.42668 c 0,35.98123 -0.27435,33.99105 4.75,34.45732 0.97776,0.0907 1.25,-7.2888 1.25,-33.884 z m 187,286.49993 v -66.49997 h -30 -30 v 65.99997 66 h -6.5 -6.5 l -0.0354,-96.74997 c -0.0271,-73.9824 -0.32125,-97.2602 -1.25,-98.9181 -0.66801,-1.1925 -7.51456,-7.2754 -15.21456,-13.5176 -17.99104,-14.5849 -17.58418,-13.6208 -17.24406,-40.86172 0.27,-21.62491 0.6546,-23.098 7.04839,-26.99654 2.48396,-1.51457 5.03304,-1.94936 11.44567,-1.95226 l 8.24996,-0.004 v -31.09887 c 0,-26.97862 0.22125,-31.56513 1.66996,-34.61806 2.67719,-5.64175 6.39719,-7.27498 16.58004,-7.27933 l 8.75,-0.004 0.004,-5.25 c 0.004,-6.19127 2.47174,-10.91028 6.90238,-13.20145 2.14654,-1.11002 5.97222,-1.54855 13.50942,-1.54855 10.31959,0 10.58006,0.0572 14.02537,3.08227 4.08096,3.58312 5.54569,7.94695 5.55351,16.54541 l 0.006,6.12768 8.79428,0.42046 c 14.62487,0.69926 17.20504,4.03216 17.20504,22.22531 v 11.59887 l 8.75,0.004 c 10.2213,0.004 13.90209,1.63597 16.62224,7.36826 1.54512,3.25611 1.68365,7.58466 1.41996,44.36806 l -0.2922,40.75966 -2.36087,3.7974 c -1.29847,2.0886 -6.79915,7.1586 -12.22372,11.2667 -5.42457,4.108 -10.32468,8.3321 -10.88913,9.3868 -0.68149,1.2734 -1.02628,34.5283 -1.02628,98.9834 v 97.06567 h -6.5 -6.5 z m 0,-83.49997 v -3 h -30 -30 v 3 3 h 30 30 z m 0,-20 v -3 h -30 -30 v 3 3 h 30 30 z m 0,-22.3427 c 0,-8.3771 2.97133,-12.8931 14.06241,-21.3727 5.19068,-3.9686 10.22509,-8.1809 11.18759,-9.3608 1.59721,-1.958 1.75,-5.4097 1.75,-39.53454 v -37.38922 h -7 -7 v 13.5 13.5 h -6.5 -6.5 v -30 -30 h -6.48512 -6.48512 l -0.26488,29.75 -0.26488,29.75 h -6.5 -6.5 l -0.26062,-43.25 -0.26063,-43.25 h -6.48937 -6.48938 v 43.5 43.5 h -6.5 -6.5 v -33.5 -33.5 h -7 -7 v 53.5 53.49996 h -6.5 -6.5 v -16.99996 -17 h -6.5 -6.5 v 18.38922 c 0,16.07354 0.22037,18.64484 1.75,20.41924 0.9625,1.1165 7.46996,6.5548 14.46103,12.0851 7.28612,5.7637 13.424,11.4338 14.38159,13.2855 0.91881,1.7768 1.89796,6.0634 2.17588,9.5257 l 0.50532,6.2952 h 29.86309 29.86309 z m 67,98.8427 v -93.5 h 6.5 6.5 v -4.3088 c 0,-2.3699 -0.5625,-5.0126 -1.25,-5.8727 -0.6875,-0.8601 -5.54738,-4.7582 -10.79974,-8.6625 -13.04266,-9.695 -14.24438,-11.9523 -14.77516,-27.7532 -0.46325,-13.79067 0.77943,-21.3433 4.26331,-25.9109 2.22357,-2.91525 2.39681,-4.10829 2.71826,-18.71937 0.34074,-15.48792 0.36597,-15.63771 3.34333,-19.85003 1.65,-2.33439 4.8,-5.18442 7,-6.3334 3.84269,-2.0069 5.67138,-2.10171 46.5,-2.41071 48.76191,-0.36905 50.78528,-0.15778 56.88235,5.9393 5.95552,5.95551 6.32569,8.90604 5.94455,47.38235 -0.38821,39.18936 0.47308,36.41316 -14.91149,48.06406 -10.77201,8.1577 -11.91541,9.5803 -11.91541,14.8245 v 3.5201 l 6.75,0.2956 6.75,0.2957 0.25515,93.25 0.25516,93.24997 h -7.00516 -7.00515 v -86.49997 -86.5 h -36.5 -36.5 v 10 10 h 23.5 23.5 v 6.5 6.5 h -23.5 -23.5 v 70 69.99997 h -6.5 -6.5 z m 73,-98.8427 c 0,-8.3771 2.97133,-12.8931 14.06241,-21.3727 13.34964,-10.2065 12.93759,-9.4932 12.93759,-22.3953 v -10.88926 h -32.39966 -32.39965 l -5.0267,5.5 c -2.76467,3.025 -5.41614,5.49996 -5.89213,5.49996 -0.47599,0 -2.75831,-1.92865 -5.07181,-4.28594 l -4.20637,-4.28597 5.49816,-5.42987 c 4.38923,-4.3347 5.49816,-6.07575 5.49816,-8.63223 0,-4.79113 -0.83887,-6.15767 -4.5272,-7.37493 -4.49253,-1.48267 -7.27472,0.0383 -15.2228,8.32197 l -6.25,6.5139 v 14.04157 14.0417 l 8.25,6.1976 c 15.20457,11.4221 17.75,14.9143 17.75,24.3524 v 5.5398 h 23.5 23.5 z m -27,-84.15726 v -16.5 h -6.5 -6.5 v 8.95559 c 0,7.92755 0.28989,9.38277 2.52535,12.6769 1.38894,2.04672 2.77652,4.8792 3.08352,6.29441 1.02803,4.73908 1.31509,5.0731 4.35975,5.0731 h 3.03138 z m 27,0 v -16.5 h -6.5 -6.5 v 16.5 16.5 h 6.5 6.5 z m 26.82205,1.41728 c -0.37033,-17.34407 -0.65869,-17.91728 -9.01318,-17.91728 h -4.80887 v 16.5 16.5 h 7.07205 7.07204 z m -83.92702,-4.51648 4.10497,-0.65642 v -6.37219 -6.37219 h -4.80887 c -7.23663,0 -8.53755,1.43901 -9.02002,9.97755 l -0.40659,7.19558 3.01277,-1.55796 c 1.65702,-0.85688 4.86,-1.85335 7.11774,-2.21437 z m 50.10497,133.09916 v -6.5 h 7 7 v 6.5 6.5 h -7 -7 z m -286,-20 v -6.5 h 6.5 6.5 v 6.5 6.5 h -6.5 -6.5 z M 130.17099,669.37407 c 0.0151,-33.24292 0.41761,-55.45626 1.05496,-58.22219 2.78969,-12.10663 12.60838,-25.45711 25.37329,-34.50011 7.81783,-5.53836 13.09682,-8.16237 23.5473,-11.70456 16.75339,-5.67855 19.2163,-5.81473 105.25,-5.81912 l 78.75,-0.004 v -46.48595 -46.48596 l -31.47013,-0.26404 -31.47014,-0.26405 49.5974,-63.5 c 27.27857,-34.925 49.74646,-63.5 49.92864,-63.5 0.18219,0 22.658,28.575 49.94624,63.5 l 49.61499,63.5 -31.5735,0.26405 -31.5735,0.26404 V 512.6 559.04781 l 82.75,0.34315 c 91.11674,0.37785 88.07941,0.18153 105.25,6.80293 11.60547,4.47536 19.72534,9.70566 28.68577,18.47754 9.03412,8.84401 14.37493,18.1301 16.29904,28.33915 0.60542,3.21229 1.01519,26.52248 1.01519,57.75 v 52.36351 h -27.46688 -27.46688 l -0.28312,-53.90804 -0.28312,-53.90805 -3.09283,-3.84195 c -3.6236,-4.50131 -8.23374,-7.82272 -13.28954,-9.57457 -5.15651,-1.78674 -384.82559,-2.43386 -393.39721,-0.67052 -6.9481,1.42936 -13.42726,5.34142 -17.33931,10.46935 l -2.88111,3.77656 -0.27517,53.82861 -0.27518,53.82861 h -27.47482 -27.47483 l 0.0245,-53.75 z M 396.71797,289.55264 c -1.24524,-1.24524 -1.57143,-3.94372 -1.57143,-13 0,-10.09524 0.23333,-11.6619 2,-13.42857 1.1,-1.1 2.45,-2 3,-2 0.55,0 1.9,0.9 3,2 1.76667,1.76667 2,3.33333 2,13.42857 0,12.07987 -0.85495,14.57143 -5,14.57143 -1.02143,0 -2.56429,-0.70714 -3.42857,-1.57143 z m 112.59757,-19.82199 c -7.03603,-7.25628 -8.36241,-10.01317 -5.969,-12.40658 2.72744,-2.72744 6.06545,-1.27937 12.97241,5.62759 6.90696,6.90696 8.35503,10.24497 5.62759,12.97241 -2.5896,2.5896 -5.49681,1.1641 -12.631,-6.19342 z m -225.969,1.19342 c -2.88453,-2.88453 -1.27125,-5.99675 8.01958,-15.47076 9.36322,-9.54782 12.62345,-11.53433 15.29341,-9.31846 3.54625,2.94312 1.83703,6.27096 -8.37291,16.30204 -9.62455,9.45593 -12.39659,11.03067 -14.94008,8.48718 z m 172.3,-22.66924 c -9.55099,-2.50498 -17.22099,-8.78729 -21.60801,-17.6986 l -3.19201,-6.4839 2.40001,-2.61479 c 4.42946,-4.82587 17.10318,-14.40656 23.27995,-17.59847 5.26692,-2.72174 7.18311,-3.16765 13.74591,-3.1988 6.68081,-0.0317 8.50532,0.38885 14.72249,3.39368 6.92341,3.34616 7.14613,3.3851 9.12415,1.59502 2.49166,-2.25492 2.59047,-4.70546 0.27426,-6.8016 -2.60979,-2.36183 -12.2173,-6.64615 -16.49675,-7.35647 -4.2775,-0.71 -4.19886,-0.57307 -2.39282,-4.16649 3.72066,-7.40288 2.66054,-13.20034 -2.4138,-13.20034 -3.10294,0 -4.14119,1.39335 -5.38862,7.23166 -0.89928,4.20885 -6.10167,9.40946 -12.37289,12.36865 -7.83565,3.6974 -15.07375,8.7915 -25.90826,18.234 -10.5157,9.16465 -18.3348,13.298 -29.48145,15.58455 -23.50256,4.82117 -42.92293,-2.15213 -49.90337,-17.91886 -2.52679,-5.70726 -3.03553,-18.84987 -1.01253,-26.15734 4.97473,-17.96963 24.15279,-25.476 53.12374,-20.79284 18.73247,3.02811 17.78032,3.02643 19.14386,0.0338 1.05222,-2.30938 0.9466,-2.9376 -0.78506,-4.66926 -2.28556,-2.28555 -16.13852,-5.36595 -28.8588,-6.41714 l -8,-0.66111 v -6.24589 c 0,-5.3005 -0.42395,-6.80172 -2.80089,-9.91805 -5.571,-7.30396 -11.98432,-3.07187 -7.79349,5.14285 1.15191,2.25792 2.09438,4.53871 2.09438,5.06843 0,2.57943 -6.10971,7.73606 -12.75274,10.76338 -17.14298,7.81231 -25.28494,22.24521 -23.96464,42.4811 0.30044,4.60464 0.86223,9.38458 1.24844,10.62208 l 0.7022,2.25 -14.36663,-0.008 c -18.11713,-0.01 -25.48647,-1.18178 -34.69909,-5.51963 -8.52878,-4.01586 -18.11148,-13.02256 -22.39374,-21.04768 -9.61052,-18.01049 -7.0472,-41.03494 6.30787,-56.65904 7.57389,-8.86026 22.90917,-16.76566 32.52367,-16.76566 2.9301,0 3.39466,0.33321 3.39466,2.4349 0,6.4612 4.35675,10.3622 7.94554,7.11438 1.34295,-1.21535 1.91875,-3.59554 2.25949,-9.34013 0.72533,-12.228293 5.88759,-20.160233 16.53069,-25.399813 5.66627,-2.7895 7.65214,-3.25143 13.74785,-3.19789 6.0989,0.0536 8.03183,0.54597 13.42282,3.41934 5.5978,2.9836 13.09361,10.45193 13.09361,13.04562 0,1.217363 3.77274,2.130493 5.94885,1.439833 3.10466,-0.985393 3.42012,-4.087443 0.876,-8.614093 l -2.30747,-4.10559 2.99131,-2.42696 c 13.66837,-11.08967 35.16911,-13.29171 51.29478,-5.25345 l 6.69653,3.33806 -7.32268,0.75316 c -9.17292,0.94347 -12.58197,2.48951 -12.97788,5.88561 -0.5263,4.51469 1.62799,5.25085 11.51554,3.93507 19.23921,-2.56027 37.31411,3.18552 53.63502,17.049893 0.4675,0.39713 -0.095,1.66706 -1.25,2.82206 -2.57646,2.57646 -2.62009,3.57991 -0.25831,5.94169 1.29733,1.29733 3.98529,2.0214 9.09391,2.44969 13.41141,1.12437 27.13709,10.10094 34.12789,22.31959 3.94258,6.89091 6.28768,18.02812 5.45805,25.92102 -0.84227,8.01305 -2.09977,9.90231 -2.75018,4.13185 -0.69748,-6.18797 -5.72384,-16.40104 -10.28462,-20.89732 -4.73814,-4.67113 -10.41252,-7.45393 -18.05208,-8.85298 -7.37851,-1.35125 -10.95298,-3.51192 -17.30171,-10.45845 -5.2054,-5.69554 -8.66434,-6.92959 -11.12217,-3.96808 -1.85456,2.23461 -0.57151,5.44948 4.4625,11.18143 l 4.53912,5.16843 -6.81587,1.55024 c -17.12194,3.8943 -32.48241,3.94372 -40.51847,0.13036 -4.63546,-2.19967 -6.45888,-4.35688 -8.4963,-10.05158 -2.08539,-5.82881 -5.18064,-7.46701 -8.27043,-4.37722 -1.5891,1.5891 -1.88931,2.74755 -1.35444,5.22648 2.49491,11.56302 12.17363,19.34028 26.48692,21.28334 l 4.54381,0.61683 -2.28713,4.64234 c -3.20945,6.51441 -4.01522,13.28475 -1.83999,15.45998 3.52555,3.52555 8.5395,0.92966 8.5395,-4.42119 0,-7.06747 6.51557,-14.99123 13.73687,-16.70576 29.75431,-7.06448 33.00706,-7.39625 40.26313,-4.10666 5.87891,2.66524 8.62415,5.31842 11.81208,11.41597 2.27289,4.34735 2.61893,6.24004 2.65101,14.5 0.0468,12.05607 -2.33515,17.69422 -9.3572,22.14843 -7.76265,4.92399 -13.05314,6.02498 -31.60589,6.57743 -9.35,0.27842 -17.5625,0.9591 -18.25,1.51262 -1.58795,1.2785 -1.61628,4.99524 -0.05,6.56152 0.80444,0.80444 5.2919,1.2 13.61354,1.2 h 12.41355 l -0.70592,4.70742 c -1.40956,9.39961 -6.94157,17.42575 -14.75977,21.41431 -4.23543,2.16075 -14.57214,3.23891 -19.2614,2.00903 z m -66.52181,-38.09 c 1.13806,-2.12649 -0.23099,-10.43552 -2.08813,-12.67323 -0.73723,-0.8883 0.28312,-1.97303 3.8011,-4.04089 5.93855,-3.49069 14.5333,-3.88198 21.01981,-0.95698 4.12457,1.85993 4.14617,1.89802 4.14617,7.31148 0,6.00495 1.26985,8.31886 4.5653,8.31886 3.274,0 4.57756,-1.92669 4.57756,-6.76574 0,-5.21182 1.07113,-7.51498 5.79225,-12.45463 3.19675,-3.34472 3.4394,-3.97579 2.4032,-6.25 -1.6261,-3.56891 -6.04811,-3.40383 -10.09537,0.37688 l -3.11143,2.90651 -4.003,-1.93404 c -5.39586,-2.607 -13.30185,-4.00416 -18.34351,-3.2417 -5.07502,0.7675 -13.71603,4.6819 -16.065,7.27748 -1.58673,1.75332 -2.02475,1.79616 -5.12398,0.50122 -1.86391,-0.77879 -5.21788,-1.41598 -7.45327,-1.41598 -3.28964,0 -4.23067,0.42887 -4.93699,2.25 -1.319,3.40086 0.87798,5.88671 6.45391,7.30249 5.2037,1.32128 8.15437,4.03071 9.06508,8.32396 1.21241,5.71549 2.27217,7.12355 5.36149,7.12355 1.94209,0 3.35289,-0.68506 4.03481,-1.95924 z m -74.64288,-26.19768 c 1.61479,-2.58002 -0.76405,-8.91251 -5.27179,-14.03358 l -3.94266,-4.4791 1.80653,-2.9152 c 2.53803,-4.0956 5.98691,-7.06362 10.30414,-8.86747 5.70457,-2.38352 8.57687,-1.95355 12.87206,1.92689 6.34567,5.73294 12.03118,5.85758 12.7028,0.27849 0.24566,-2.04068 -0.54408,-3.11636 -3.98426,-5.42681 -5.4906,-3.68753 -6.78919,-6.36836 -6.80739,-14.05325 -0.0129,-5.43079 -0.31637,-6.42458 -2.37384,-7.77268 -4.68648,-3.07071 -7.6409,0.62758 -7.6409,9.56473 0,4.4445 -0.22359,4.93708 -2.25,4.95686 -6.33577,0.0618 -17.20633,7.59209 -20.83551,14.43315 -2.4059,4.53517 -2.42283,4.54501 -7.91277,4.60133 -10.43531,0.10706 -15.50083,3.35796 -13.17756,8.45698 1.17025,2.56841 1.41258,2.63849 6.4459,1.86418 11.12996,-1.71219 16.43411,0.13052 19.84114,6.89301 1.17196,2.32616 2.60036,4.81464 3.17422,5.52995 1.38116,1.72158 5.74398,1.12904 7.04989,-0.95748 z m 49.14188,-40.81787 c 1.43491,-1.58556 1.65825,-2.94654 1.13315,-6.90495 -0.63313,-4.77281 -0.54959,-4.99429 2.61783,-6.9398 1.7995,-1.1053 6.19683,-3.16214 9.77183,-4.57076 19.61481,-7.72859 38.97001,-8.53034 59.65403,-2.47107 l 7.15403,2.09574 0.67607,4.50837 c 0.79383,5.29365 4.41822,9.60156 7.21034,8.57013 2.89095,-1.06795 3.33702,-2.46655 2.68839,-8.42924 -0.60222,-5.53602 -0.55926,-5.65762 3.00306,-8.5 4.50593,-3.59529 4.98321,-7.80269 1.08652,-9.57814 -2.20527,-1.00479 -3.07112,-0.7685 -6.79044,1.85312 l -4.26288,3.00475 -5.36281,-1.82288 c -10.81904,-3.6775 -20.29114,-5.13291 -33.05631,-5.07917 -15.32236,0.0645 -27.71383,2.95523 -41.57673,9.69913 l -9.21949,4.48502 -4.0199,-2.20192 c -3.94488,-2.16082 -4.05876,-2.16675 -6.10189,-0.31774 -3.05832,2.76775 -2.59287,4.52419 2.41801,9.12468 3.83102,3.51726 4.5,4.70086 4.5,7.96174 0,6.53241 4.75569,9.62519 8.47719,5.51299 z m -162.27719,13.77479 c -1.66087,-1.66087 -1.50009,-4.35705 0.37143,-6.22857 1.26396,-1.26396 4.0619,-1.57143 14.3,-1.57143 13.3609,0 15.12857,0.52579 15.12857,4.5 0,3.99176 -1.75061,4.5 -15.5,4.5 -8.85556,0 -13.4888,-0.3888 -14.3,-1.2 z m 369,0 c -0.66,-0.66 -1.2,-2.145 -1.2,-3.3 0,-3.97421 1.76767,-4.5 15.12857,-4.5 10.2381,0 13.03604,0.30747 14.3,1.57143 1.87152,1.87152 2.0323,4.5677 0.37143,6.22857 -1.66606,1.66606 -26.93394,1.66606 -28.6,0 z M 292.00646,52.436874 c -7.78834,-7.6519 -9.85992,-10.27076 -9.85992,-12.46481 0,-3.10749 2.95065,-5.31583 5.86625,-4.39045 0.98489,0.31259 5.91789,4.7769 10.96223,9.92069 9.24236,9.42459 10.85291,12.540373 7.97152,15.421763 -2.54349,2.54349 -5.31553,0.96874 -14.94008,-8.487193 z m 201.34008,8.487193 c -2.88139,-2.88139 -1.27084,-5.997173 7.97152,-15.421763 5.04434,-5.14379 9.97734,-9.6081 10.96223,-9.92069 2.9156,-0.92538 5.86625,1.28296 5.86625,4.39045 0,2.19405 -2.07158,4.81291 -9.85992,12.46481 -9.62455,9.455933 -12.39659,11.030683 -14.94008,8.487193 z M 396.80153,44.295324 c -1.33832,-1.47882 -1.65499,-4.03233 -1.65499,-13.34502 0,-9.88678 0.25876,-11.75044 1.82874,-13.17125 2.37688,-2.15105 4.46269,-2.09544 6.51627,0.17375 1.33832,1.47882 1.65499,4.03232 1.65499,13.34501 0,9.88679 -0.25876,11.75044 -1.82874,13.17126 -2.37688,2.15105 -4.46269,2.09543 -6.51627,-0.17375 z"
     style="fill:#000000" />
</svg>
